<svg width="25" height="25" viewBox="0 0 25 25" fill="none" xmlns="http://www.w3.org/2000/svg">
<path d="M21.9957 18.6577H19.7137C18.8507 18.6577 18.5907 17.9587 17.0437 16.4107C15.6917 15.1077 15.1207 14.9457 14.7787 14.9457C14.3057 14.9457 14.1767 15.0757 14.1767 15.7267V17.7787C14.1767 18.3337 13.9967 18.6587 12.5467 18.6587C11.14 18.5642 9.77586 18.1368 8.56667 17.4119C7.35748 16.6869 6.33782 15.685 5.5917 14.4887C3.82009 12.2837 2.58741 9.69578 1.9917 6.9307C1.9917 6.5887 2.1217 6.2787 2.7737 6.2787H5.0537C5.6397 6.2787 5.8507 6.5397 6.0807 7.1427C7.1877 10.4007 9.0767 13.2347 9.8437 13.2347C10.1377 13.2347 10.2657 13.1047 10.2657 12.3717V9.0157C10.1687 7.4847 9.3557 7.3557 9.3557 6.8017C9.36598 6.65554 9.43284 6.51915 9.54207 6.42149C9.65131 6.32384 9.79431 6.27261 9.9407 6.2787H13.5247C14.0147 6.2787 14.1767 6.5227 14.1767 7.1087V11.6387C14.1767 12.1277 14.3867 12.2897 14.5347 12.2897C14.8287 12.2897 15.0547 12.1277 15.5937 11.5897C16.7491 10.1807 17.693 8.61087 18.3957 6.9297C18.4676 6.72785 18.6036 6.55507 18.7829 6.43772C18.9622 6.32036 19.1749 6.26487 19.3887 6.2797H21.6697C22.3537 6.2797 22.4987 6.6217 22.3537 7.1097C21.5241 8.96812 20.4975 10.7322 19.2917 12.3717C19.0457 12.7467 18.9477 12.9417 19.2917 13.3817C19.5177 13.7237 20.3177 14.3917 20.8547 15.0267C21.6367 15.8067 22.2857 16.7087 22.7767 17.6967C22.9727 18.3327 22.6467 18.6577 21.9957 18.6577Z" fill="currentColor"/>
</svg>
