<svg width="15" height="18" viewBox="0 0 15 18" fill="none" xmlns="http://www.w3.org/2000/svg">
<path fill-rule="evenodd" clip-rule="evenodd" d="M2.7587 0.777344C2.9597 1.36534 3.1677 1.96334 3.3757 2.55134C3.6797 3.43334 3.8697 4.09734 3.9557 4.56234V7.13334H4.9037V4.56234L6.0517 0.777344H5.0837L4.4387 3.27234L3.7657 0.777344H2.7587ZM7.3227 7.19934C7.7597 7.19934 8.0917 7.03834 8.3287 6.71534C8.5097 6.47834 8.5937 6.09834 8.5937 5.59534V3.93534C8.5937 3.43234 8.5097 3.06234 8.3287 2.82534C8.0907 2.50434 7.7587 2.34234 7.3227 2.34234C6.8947 2.34234 6.5627 2.50334 6.3277 2.82534C6.1467 3.06334 6.0617 3.43334 6.0617 3.93634V5.59634C6.0617 6.09934 6.1467 6.46934 6.3277 6.71634C6.5627 7.03834 6.8947 7.19934 7.3227 7.19934ZM6.9147 3.76534C6.9147 3.32934 7.0477 3.11134 7.3227 3.11134C7.6077 3.11134 7.7307 3.32934 7.7307 3.76534V5.75734C7.7307 6.19434 7.6077 6.42134 7.3227 6.42134C7.0477 6.42134 6.9147 6.19334 6.9147 5.75734V3.76534ZM9.2967 6.13734C9.2967 6.47834 9.3237 6.70534 9.3717 6.84834C9.4567 7.08634 9.6557 7.19934 9.9307 7.19934C10.2457 7.19934 10.5677 7.00934 10.9087 6.61134V7.13334H11.7717V2.39934H10.9087V6.01334C10.7187 6.28834 10.5387 6.42134 10.3687 6.42134C10.2547 6.42134 10.1887 6.34634 10.1697 6.21334C10.1597 6.19334 10.1597 6.08034 10.1597 5.88034V2.39934H9.2967V6.13734ZM12.6547 12.5883V13.0243H11.8007V12.5883C11.8007 12.1613 11.9437 11.9423 12.2277 11.9423C12.5117 11.9433 12.6547 12.1613 12.6547 12.5883ZM14.3047 9.56234C14.1337 8.81234 13.5167 8.26234 12.7867 8.17734C11.0407 7.98734 9.2757 7.98734 7.5207 7.98734C5.7657 7.98734 4.0007 7.98734 2.2647 8.17734C1.5267 8.26234 0.918699 8.81234 0.738699 9.56234C0.501699 10.6243 0.491699 11.7823 0.491699 12.8823C0.491699 13.9733 0.491699 15.1393 0.738699 16.2023C0.909699 16.9523 1.5267 17.5023 2.2567 17.5783C4.0017 17.7773 5.7667 17.7773 7.5217 17.7773C9.2767 17.7773 11.0417 17.7773 12.7877 17.5783C13.5167 17.5023 14.1247 16.9523 14.3057 16.2023C14.5427 15.1403 14.5527 13.9733 14.5527 12.8823L14.5527 12.8683V12.8683C14.5517 11.7725 14.5506 10.6198 14.3047 9.56234ZM3.4907 10.5203H4.5047V9.62834H1.5447V10.5203H2.5417V15.9183H3.4907V10.5203ZM7.0667 15.9183H6.2217V15.4063C5.8797 15.7953 5.5577 15.9853 5.2537 15.9853C4.9797 15.9853 4.7797 15.8713 4.7037 15.6343C4.6557 15.4923 4.6277 15.2733 4.6277 14.9423V11.2333H5.4727V14.6863C5.4727 14.8863 5.4727 14.9903 5.4817 15.0193C5.5017 15.1513 5.5677 15.2183 5.6807 15.2183C5.8527 15.2183 6.0327 15.0863 6.2217 14.8203V11.2343H7.0667V15.9183ZM10.2067 15.4623C10.2727 15.2633 10.2927 14.9513 10.2927 14.5143V12.6453C10.2927 12.2083 10.2727 11.8963 10.2067 11.7063C10.1027 11.3553 9.8647 11.1753 9.5327 11.1753C9.2197 11.1753 8.9247 11.3453 8.6497 11.6873V9.62834H7.8067V15.9183H8.6497V15.4623C8.9347 15.8133 9.2297 15.9843 9.5327 15.9843C9.8647 15.9843 10.1027 15.8043 10.2067 15.4623ZM13.4987 13.7363H11.8007V14.5613C11.8007 14.9983 11.9437 15.2153 12.2377 15.2153C12.4467 15.2153 12.5697 15.1023 12.6177 14.8743C12.6267 14.8273 12.6367 14.6373 12.6367 14.2953H13.4997V14.4193C13.4997 14.6943 13.4997 14.8843 13.4807 14.9693C13.4607 15.1583 13.3847 15.3293 13.2817 15.4813C13.0527 15.8133 12.7027 15.9843 12.2577 15.9843C11.8117 15.9843 11.4787 15.8233 11.2327 15.5003C11.0527 15.2723 10.9577 14.9023 10.9577 14.3993V12.7583C10.9577 12.2553 11.0437 11.8953 11.2237 11.6573C11.4707 11.3343 11.8027 11.1733 12.2397 11.1733C12.6677 11.1733 12.9987 11.3343 13.2447 11.6573C13.4167 11.8943 13.5017 12.2543 13.5017 12.7583V13.7363H13.4987ZM9.4477 14.5803V12.5783C9.4477 12.1613 9.3237 11.9433 9.0777 11.9433C8.9347 11.9433 8.7927 12.0093 8.6497 12.1523V15.0073C8.7927 15.1493 8.9347 15.2153 9.0777 15.2153C9.3237 15.2153 9.4477 15.0073 9.4477 14.5803Z" fill="currentColor"/>
</svg>
