<svg width="16" height="16" viewBox="0 0 16 16" fill="none" xmlns="http://www.w3.org/2000/svg">
<path d="M10.4063 9.04772L10.4063 9.04771L10.404 9.05L6.06224 13.3918C6.01808 13.4316 5.97214 13.4457 5.93974 13.4457C5.89671 13.4457 5.8563 13.4309 5.82211 13.3967L5.58641 13.6324L5.82211 13.3967C5.75895 13.3335 5.75895 13.2246 5.82211 13.1614L10.1688 8.81474C10.6189 8.36456 10.6189 7.63351 10.1688 7.18333L5.82211 2.83667C5.75895 2.77351 5.75895 2.66456 5.82211 2.60141C5.88527 2.53825 5.99421 2.53825 6.05737 2.60141L10.404 6.94807C10.6821 7.22609 10.8397 7.60152 10.8397 7.99904C10.8397 8.39936 10.6868 8.77261 10.4063 9.04772Z" fill="#9EAAB0" stroke="#9EAAB0" stroke-width="0.666667"/>
</svg>
