<svg width="20" height="20" viewBox="0 0 20 20" fill="none" xmlns="http://www.w3.org/2000/svg">
<path d="M6.72513 9.5484L13.6914 2.9109C13.8076 2.80009 13.962 2.73828 14.1226 2.73828C14.2832 2.73828 14.4376 2.80009 14.5539 2.9109L14.5614 2.9184C14.6179 2.97212 14.6629 3.03678 14.6937 3.10844C14.7245 3.18011 14.7403 3.25728 14.7403 3.33528C14.7403 3.41327 14.7245 3.49044 14.6937 3.56211C14.6629 3.63378 14.6179 3.69843 14.5614 3.75215L8.00138 10.0022L14.5614 16.2497C14.6179 16.3034 14.6629 16.368 14.6937 16.4397C14.7245 16.5114 14.7403 16.5885 14.7403 16.6665C14.7403 16.7445 14.7245 16.8217 14.6937 16.8934C14.6629 16.965 14.6179 17.0297 14.5614 17.0834L14.5539 17.0909C14.4376 17.2017 14.2832 17.2635 14.1226 17.2635C13.962 17.2635 13.8076 17.2017 13.6914 17.0909L6.72513 10.4534C6.66386 10.395 6.61509 10.3248 6.58176 10.247C6.54843 10.1693 6.53125 10.0855 6.53125 10.0009C6.53125 9.91628 6.54843 9.83254 6.58176 9.75476C6.61509 9.67698 6.66386 9.60677 6.72513 9.5484Z" fill="currentColor"/>
</svg>
